<svg width="374" height="96" viewBox="0 0 374 96" fill="none" xmlns="http://www.w3.org/2000/svg">
<path d="M47.5589 0.96875C54.9829 0.96875 61.6389 2.12075 67.5269 4.42475C73.4149 6.68608 78.4283 9.92875 82.5669 14.1527C86.7056 18.3341 89.8629 23.3474 92.0389 29.1928C94.2149 34.9954 95.3029 41.4807 95.3029 48.6488C95.3029 55.2194 94.2149 61.3421 92.0389 67.0168C89.9056 72.6914 86.7909 77.6621 82.6949 81.9288C78.6416 86.1528 73.7136 89.4594 67.9109 91.8488C62.1509 94.2381 55.6869 95.4328 48.5189 95.4328C41.0949 95.4328 34.4389 94.3021 28.5509 92.0408C22.6629 89.7368 17.6496 86.4941 13.5109 82.3128C9.37227 78.0888 6.1936 73.0541 3.97494 67.2088C1.79894 61.3634 0.710938 54.8354 0.710938 47.6247C0.710938 41.0967 1.79894 34.9954 3.97494 29.3208C6.15094 23.6461 9.26561 18.6968 13.3189 14.4727C17.4149 10.2487 22.3429 6.94208 28.1029 4.55275C33.9056 2.16342 40.3909 0.96875 47.5589 0.96875ZM65.1589 66.6328C65.1589 60.8301 64.6896 55.1554 63.7509 49.6088C62.8549 44.0194 61.6176 38.7928 60.0389 33.9287C58.4603 29.0647 56.6469 24.7768 54.5989 21.0648C52.5936 17.3528 50.4816 14.4514 48.2629 12.3607C46.0443 10.2274 43.8469 9.16075 41.6709 9.16075C39.3669 9.16075 37.4256 9.95009 35.8469 11.5288C34.3109 13.0648 33.1376 15.3474 32.3269 18.3768C31.5163 21.4061 31.1109 25.1608 31.1109 29.6408C31.1109 35.4434 31.5589 41.1394 32.4549 46.7288C33.3936 52.3181 34.6523 57.5661 36.2309 62.4728C37.8523 67.3368 39.6656 71.6248 41.6709 75.3368C43.6763 79.0488 45.7883 81.9714 48.0069 84.1048C50.2256 86.1954 52.4229 87.2408 54.5989 87.2408C56.9883 87.2408 58.9509 86.4728 60.4869 84.9368C62.0229 83.4007 63.1749 81.1181 63.9429 78.0888C64.7536 75.0168 65.1589 71.1981 65.1589 66.6328Z" fill="#1F1F1F"/>
<path d="M133.3 89.0968C133.3 90.2914 132.895 91.2301 132.084 91.9128C131.316 92.5954 130.1 92.9581 128.436 93.0008H107.956C106.292 92.9581 105.055 92.5954 104.244 91.9128C103.433 91.2301 103.028 90.2914 103.028 89.0968C103.028 87.1341 104.137 85.6621 106.356 84.6808L107.764 84.1048C109.812 83.2088 111.284 82.1421 112.18 80.9048C113.119 79.6248 113.588 77.6621 113.588 75.0168V25.8648C113.588 24.4141 113.46 23.2834 113.204 22.4728C112.948 21.6621 112.308 20.5954 111.284 19.2728L106.228 12.1048C105.375 10.9101 104.756 9.97142 104.372 9.28875C104.031 8.56342 103.86 7.83809 103.86 7.11275C103.86 5.91808 104.265 5.00075 105.076 4.36075C105.887 3.72075 106.932 3.40075 108.212 3.40075H130.804C132.34 3.40075 133.599 3.65675 134.58 4.16875C135.561 4.68075 136.543 5.66209 137.524 7.11275L178.548 67.2728L175.028 77.5768V21.3848C175.028 18.8248 174.601 16.9261 173.748 15.6888C172.937 14.4088 171.423 13.2781 169.204 12.2968L167.86 11.7207C165.641 10.6541 164.532 9.18208 164.532 7.30475C164.532 6.06742 164.916 5.10742 165.684 4.42475C166.495 3.74208 167.711 3.40075 169.332 3.40075H189.812C191.519 3.40075 192.756 3.74208 193.524 4.42475C194.335 5.10742 194.74 6.06742 194.74 7.30475C194.74 9.22475 193.631 10.6968 191.412 11.7207L190.004 12.2968C187.956 13.1501 186.463 14.2168 185.524 15.4967C184.628 16.7341 184.18 18.6968 184.18 21.3848V70.4728C184.18 72.0514 184.308 73.4594 184.564 74.6968C184.82 75.8914 185.289 76.9794 185.972 77.9608L190.068 83.7848C191.135 85.1927 191.753 86.2594 191.924 86.9848C192.137 87.6674 192.244 88.3714 192.244 89.0968C192.244 90.2914 191.839 91.2514 191.028 91.9768C190.26 92.6594 189.193 93.0008 187.828 93.0008H162.484C159.967 93.0008 158.708 91.9554 158.708 89.8648C158.708 89.1821 158.559 88.4781 158.26 87.7528C157.961 87.0274 157.151 85.7688 155.828 83.9768L114.292 23.4328L122.74 18.4408V75.0808C122.74 77.5554 123.167 79.4328 124.02 80.7128C124.873 81.9501 126.388 83.0807 128.564 84.1048L129.908 84.6808C132.169 85.7048 133.3 87.1768 133.3 89.0968Z" fill="#1F1F1F"/>
<path d="M263.632 60.8727L255.248 62.4728L273.872 11.3368C274.981 8.30742 276.261 6.23808 277.712 5.12875C279.163 3.97675 281.189 3.40075 283.792 3.40075H309.136C310.843 3.40075 312.08 3.74208 312.848 4.42475C313.659 5.10742 314.064 6.06742 314.064 7.30475C314.064 8.37142 313.808 9.26742 313.296 9.99275C312.784 10.6754 312.059 11.1874 311.12 11.5288L308.56 12.4248C307.28 12.8514 306.405 13.4274 305.936 14.1527C305.509 14.8781 305.339 15.9661 305.424 17.4167L309.584 79.3048C309.669 80.8408 309.925 81.9288 310.352 82.5688C310.821 83.1661 311.589 83.6354 312.656 83.9768L315.216 84.8728C316.112 85.1714 316.795 85.6621 317.264 86.3448C317.733 87.0274 317.968 87.8808 317.968 88.9048C317.968 90.0568 317.563 91.0381 316.752 91.8488C315.984 92.6168 314.747 93.0008 313.04 93.0008H276.752C275.045 93.0008 273.787 92.6594 272.976 91.9768C272.165 91.2514 271.76 90.2914 271.76 89.0968C271.76 88.1154 271.973 87.2621 272.4 86.5368C272.869 85.8114 273.68 85.2568 274.832 84.8728L277.456 83.9768C278.693 83.5501 279.525 82.9954 279.952 82.3128C280.421 81.6301 280.613 80.6061 280.528 79.2408L275.728 14.7288L283.28 13.8968L257.744 84.1688C256.635 87.1554 255.504 89.0541 254.352 89.8648C253.243 90.6754 251.899 91.0808 250.32 91.0808C249.211 91.0808 248.187 90.9528 247.248 90.6968C246.309 90.3981 245.413 89.7368 244.56 88.7128C243.749 87.6461 242.896 86.0034 242 83.7848L215.632 16.3288L222.864 14.7928L217.872 76.4888C217.701 78.5794 218.192 80.2008 219.344 81.3528C220.496 82.5048 221.947 83.5287 223.696 84.4248L225.424 85.3848C226.107 85.7261 226.619 86.1954 226.96 86.7928C227.344 87.3474 227.536 88.0728 227.536 88.9688C227.536 90.1634 227.152 91.1448 226.384 91.9128C225.616 92.6381 224.379 93.0008 222.672 93.0008H203.216C201.509 93.0008 200.272 92.6594 199.504 91.9768C198.736 91.2514 198.352 90.2914 198.352 89.0968C198.352 87.9021 198.651 87.0061 199.248 86.4088C199.888 85.7688 200.699 85.1928 201.68 84.6808L203.024 84.1048C204.475 83.4221 205.733 82.4834 206.8 81.2888C207.867 80.0941 208.507 78.4727 208.72 76.4248L213.136 20.9368C213.349 18.2488 213.221 16.2861 212.752 15.0488C212.325 13.7688 211.429 12.8941 210.064 12.4248L207.504 11.5288C206.48 11.1448 205.712 10.6114 205.2 9.92875C204.731 9.24609 204.496 8.37142 204.496 7.30475C204.496 4.70208 206.139 3.40075 209.424 3.40075H234.64C237.029 3.40075 238.949 3.91275 240.4 4.93675C241.851 5.91809 243.173 7.96608 244.368 11.0807L263.632 60.8727Z" fill="#1F1F1F"/>
<path d="M364.65 80.0728C364.65 81.0541 364.906 81.8648 365.418 82.5048C365.973 83.1021 366.783 83.5928 367.85 83.9768L370.41 84.8728C372.458 85.6408 373.482 87.0488 373.482 89.0968C373.482 90.2914 373.077 91.2514 372.266 91.9768C371.455 92.6594 370.218 93.0008 368.554 93.0008H331.306C329.599 93.0008 328.341 92.6594 327.53 91.9768C326.762 91.2514 326.378 90.2914 326.378 89.0968C326.378 87.0488 327.381 85.6408 329.386 84.8728L332.01 83.9768C333.077 83.5928 333.866 83.1021 334.378 82.5048C334.933 81.8648 335.21 81.0541 335.21 80.0728V16.3288C335.21 15.3474 334.933 14.5581 334.378 13.9608C333.866 13.3208 333.077 12.8088 332.01 12.4248L329.386 11.5288C327.381 10.7608 326.378 9.35275 326.378 7.30475C326.378 6.06742 326.762 5.10742 327.53 4.42475C328.341 3.74208 329.599 3.40075 331.306 3.40075H368.554C370.218 3.40075 371.455 3.74208 372.266 4.42475C373.077 5.10742 373.482 6.06742 373.482 7.30475C373.482 9.35275 372.458 10.7608 370.41 11.5288L367.85 12.4248C366.783 12.8088 365.973 13.3208 365.418 13.9608C364.906 14.5581 364.65 15.3474 364.65 16.3288V80.0728Z" fill="#1F1F1F"/>
</svg>
